<svg xmlns="http://www.w3.org/2000/svg" width="1400" height="720" viewBox="0 0 1400 720" role="img" aria-labelledby="am-title am-desc" font-family="Inter, ui-sans-serif, system-ui, -apple-system, 'Segoe UI', sans-serif">
  <title id="am-title">Agent mesh on Matrix</title>
  <desc id="am-desc">Multiple agents collaborate through Matrix rooms — humans configure, agents consult each other, every action is recorded.</desc>
  <defs>
    <linearGradient id="bg" x1="0" y1="0" x2="1400" y2="720" gradientUnits="userSpaceOnUse">
      <stop offset="0" stop-color="#06060A"/>
      <stop offset="1" stop-color="#0A0A14"/>
    </linearGradient>
    <radialGradient id="orb-a" cx="700" cy="360" r="500" gradientUnits="userSpaceOnUse">
      <stop offset="0" stop-color="#6366F1" stop-opacity=".22"/>
      <stop offset="1" stop-color="#6366F1" stop-opacity="0"/>
    </radialGradient>
    <radialGradient id="orb-b" cx="1200" cy="100" r="380" gradientUnits="userSpaceOnUse">
      <stop offset="0" stop-color="#22D3EE" stop-opacity=".22"/>
      <stop offset="1" stop-color="#22D3EE" stop-opacity="0"/>
    </radialGradient>
    <pattern id="grid" width="48" height="48" patternUnits="userSpaceOnUse">
      <path d="M 48 0 L 0 0 0 48" fill="none" stroke="#FFFFFF" stroke-opacity=".035"/>
    </pattern>
    <linearGradient id="bus" x1="0" y1="0" x2="0" y2="1">
      <stop offset="0" stop-color="#A78BFA"/>
      <stop offset=".5" stop-color="#6366F1"/>
      <stop offset="1" stop-color="#22D3EE"/>
    </linearGradient>
    <linearGradient id="card" x1="0" y1="0" x2="0" y2="1">
      <stop offset="0" stop-color="#FFFFFF" stop-opacity=".07"/>
      <stop offset="1" stop-color="#FFFFFF" stop-opacity=".02"/>
    </linearGradient>
    <linearGradient id="card-border" x1="0" y1="0" x2="1" y2="1">
      <stop offset="0" stop-color="#FFFFFF" stop-opacity=".22"/>
      <stop offset="1" stop-color="#FFFFFF" stop-opacity=".06"/>
    </linearGradient>
    <linearGradient id="edge" x1="0" y1="0" x2="1" y2="0">
      <stop offset="0" stop-color="#6366F1" stop-opacity=".08"/>
      <stop offset=".5" stop-color="#22D3EE" stop-opacity=".6"/>
      <stop offset="1" stop-color="#6366F1" stop-opacity=".08"/>
    </linearGradient>
    <linearGradient id="edge-back" x1="0" y1="0" x2="1" y2="0">
      <stop offset="0" stop-color="#22D3EE" stop-opacity=".08"/>
      <stop offset=".5" stop-color="#A78BFA" stop-opacity=".55"/>
      <stop offset="1" stop-color="#22D3EE" stop-opacity=".08"/>
    </linearGradient>
    <filter id="glow" x="-50%" y="-50%" width="200%" height="200%">
      <feGaussianBlur stdDeviation="6"/>
    </filter>
  </defs>

  <rect width="1400" height="720" fill="url(#bg)"/>
  <rect width="1400" height="720" fill="url(#grid)"/>
  <rect width="1400" height="720" fill="url(#orb-a)"/>
  <rect width="1400" height="720" fill="url(#orb-b)"/>

  <text x="60" y="64" fill="#22D3EE" font-size="12" letter-spacing="3" font-weight="600">CREDO  /  AGENT MESH</text>
  <text x="60" y="104" fill="#EDEDED" font-size="34" font-weight="700" letter-spacing="-1.4">Many agents. One audited room.</text>
  <text x="60" y="134" fill="#94A3B8" font-size="15">Configure them. Watch them consult each other. Every message is recorded.</text>

  <!-- Human user -->
  <g transform="translate(80 340)">
    <rect x="0" y="0" width="180" height="100" rx="16" fill="url(#card)" stroke="url(#card-border)"/>
    <circle cx="34" cy="50" r="20" fill="#FFFFFF" fill-opacity=".05" stroke="#A5B4FC" stroke-width="1.4"/>
    <circle cx="34" cy="44" r="6" fill="#A5B4FC"/>
    <path d="M22 64 Q34 54 46 64" fill="none" stroke="#A5B4FC" stroke-width="1.4" stroke-linecap="round"/>
    <text x="70" y="42" fill="#EDEDED" font-size="14" font-weight="700">Martin</text>
    <text x="70" y="60" fill="#94A3B8" font-size="11">operator · configures</text>
    <text x="70" y="78" fill="#6B7280" font-size="10">human-in-the-loop</text>
  </g>

  <!-- edge: human → bus -->
  <path d="M260 390 Q360 390 440 360" fill="none" stroke="url(#edge)" stroke-width="2"/>

  <!-- Matrix bus (vertical pill) -->
  <g transform="translate(440 160)">
    <rect x="0" y="0" width="120" height="440" rx="60" fill="#0F0F18" stroke="url(#bus)" stroke-width="2"/>
    <rect x="0" y="0" width="120" height="440" rx="60" fill="url(#bus)" opacity=".10"/>
    <text x="60" y="44" text-anchor="middle" fill="#94A3B8" font-size="10" letter-spacing="2.4">MATRIX</text>
    <text x="60" y="68" text-anchor="middle" fill="#EDEDED" font-size="13" font-weight="700">the bus</text>

    <!-- room dots inside -->
    <g font-size="10" fill="#94A3B8">
      <g transform="translate(60 110)"><circle r="3" fill="#A78BFA"/><text x="14" y="4">intake</text></g>
      <g transform="translate(60 150)"><circle r="3" fill="#22D3EE"/><text x="14" y="4">research</text></g>
      <g transform="translate(60 190)"><circle r="3" fill="#34D399"/><text x="14" y="4">ops</text></g>
      <g transform="translate(60 230)"><circle r="3" fill="#F472B6"/><text x="14" y="4">memory</text></g>
      <g transform="translate(60 270)"><circle r="3" fill="#FBBF24"/><text x="14" y="4">alerts</text></g>
      <g transform="translate(60 310)"><circle r="3" fill="#60A5FA"/><text x="14" y="4">voice</text></g>
    </g>
    <text x="60" y="394" text-anchor="middle" fill="#6B7280" font-size="10">+ audit log</text>
    <text x="60" y="412" text-anchor="middle" fill="#6B7280" font-size="10">+ every event</text>
  </g>

  <!-- edges bus → agents -->
  <g fill="none" stroke="url(#edge)" stroke-width="2" opacity=".95">
    <path d="M560 230 Q700 230 790 200"/>
    <path d="M560 290 Q700 290 790 350"/>
    <path d="M560 360 Q700 360 790 510"/>
    <path d="M560 230 Q800 230 1080 180"/>
    <path d="M560 320 Q820 320 1080 360"/>
    <path d="M560 410 Q820 410 1080 530"/>
  </g>

  <!-- inter-agent edges (dashed = consult) -->
  <g fill="none" stroke="url(#edge-back)" stroke-width="1.4" stroke-dasharray="4 6" opacity=".7">
    <path d="M880 240 Q980 290 1080 240"/>
    <path d="M880 390 Q980 440 1080 390"/>
    <path d="M790 200 Q940 80 1080 180"/>
  </g>

  <!-- 6 agents (2 columns × 3 rows on right) -->
  <g font-family="Inter, ui-sans-serif, system-ui, sans-serif">
    <!-- Researcher -->
    <g transform="translate(790 160)">
      <rect width="190" height="84" rx="14" fill="url(#card)" stroke="url(#card-border)"/>
      <circle cx="22" cy="42" r="8" fill="#22D3EE" filter="url(#glow)" opacity=".7"/>
      <circle cx="22" cy="42" r="6" fill="#0F0F18" stroke="#22D3EE" stroke-width="1.4"/>
      <text x="42" y="36" fill="#EDEDED" font-size="13" font-weight="700">Researcher</text>
      <text x="42" y="52" fill="#94A3B8" font-size="10">browser · arXiv · MCP</text>
      <text x="42" y="68" fill="#6B7280" font-size="9">status: idle</text>
      <circle cx="174" cy="14" r="3" fill="#34D399"/>
    </g>

    <!-- Coder -->
    <g transform="translate(790 310)">
      <rect width="190" height="84" rx="14" fill="url(#card)" stroke="url(#card-border)"/>
      <circle cx="22" cy="42" r="8" fill="#A78BFA" filter="url(#glow)" opacity=".7"/>
      <circle cx="22" cy="42" r="6" fill="#0F0F18" stroke="#A78BFA" stroke-width="1.4"/>
      <text x="42" y="36" fill="#EDEDED" font-size="13" font-weight="700">Coder</text>
      <text x="42" y="52" fill="#94A3B8" font-size="10">GitHub · Codex · skills</text>
      <text x="42" y="68" fill="#6B7280" font-size="9">status: drafting PR</text>
      <circle cx="174" cy="14" r="3" fill="#FBBF24"/>
    </g>

    <!-- Inbox triage -->
    <g transform="translate(790 470)">
      <rect width="190" height="84" rx="14" fill="url(#card)" stroke="url(#card-border)"/>
      <circle cx="22" cy="42" r="8" fill="#F472B6" filter="url(#glow)" opacity=".7"/>
      <circle cx="22" cy="42" r="6" fill="#0F0F18" stroke="#F472B6" stroke-width="1.4"/>
      <text x="42" y="36" fill="#EDEDED" font-size="13" font-weight="700">Inbox triage</text>
      <text x="42" y="52" fill="#94A3B8" font-size="10">himalaya · notmuch</text>
      <text x="42" y="68" fill="#6B7280" font-size="9">status: 12 to review</text>
      <circle cx="174" cy="14" r="3" fill="#F472B6"/>
    </g>

    <!-- Voice concierge -->
    <g transform="translate(1080 160)">
      <rect width="190" height="84" rx="14" fill="url(#card)" stroke="url(#card-border)"/>
      <circle cx="22" cy="42" r="8" fill="#60A5FA" filter="url(#glow)" opacity=".7"/>
      <circle cx="22" cy="42" r="6" fill="#0F0F18" stroke="#60A5FA" stroke-width="1.4"/>
      <text x="42" y="36" fill="#EDEDED" font-size="13" font-weight="700">Voice concierge</text>
      <text x="42" y="52" fill="#94A3B8" font-size="10">LiveKit · Whisper</text>
      <text x="42" y="68" fill="#6B7280" font-size="9">status: listening</text>
      <circle cx="174" cy="14" r="3" fill="#60A5FA"/>
    </g>

    <!-- Calendar -->
    <g transform="translate(1080 310)">
      <rect width="190" height="84" rx="14" fill="url(#card)" stroke="url(#card-border)"/>
      <circle cx="22" cy="42" r="8" fill="#FBBF24" filter="url(#glow)" opacity=".7"/>
      <circle cx="22" cy="42" r="6" fill="#0F0F18" stroke="#FBBF24" stroke-width="1.4"/>
      <text x="42" y="36" fill="#EDEDED" font-size="13" font-weight="700">Calendar pro</text>
      <text x="42" y="52" fill="#94A3B8" font-size="10">Cal.com · gcal · MCP</text>
      <text x="42" y="68" fill="#6B7280" font-size="9">status: planning week</text>
      <circle cx="174" cy="14" r="3" fill="#FBBF24"/>
    </g>

    <!-- Advisor -->
    <g transform="translate(1080 470)">
      <rect width="190" height="84" rx="14" fill="url(#card)" stroke="url(#card-border)"/>
      <circle cx="22" cy="42" r="8" fill="#34D399" filter="url(#glow)" opacity=".7"/>
      <circle cx="22" cy="42" r="6" fill="#0F0F18" stroke="#34D399" stroke-width="1.4"/>
      <text x="42" y="36" fill="#EDEDED" font-size="13" font-weight="700">Personal advisor</text>
      <text x="42" y="52" fill="#94A3B8" font-size="10">memory · WHOOP · AW</text>
      <text x="42" y="68" fill="#6B7280" font-size="9">status: consulting</text>
      <circle cx="174" cy="14" r="3" fill="#34D399"/>
    </g>
  </g>

  <!-- legend -->
  <g transform="translate(60 660)" font-size="11" fill="#94A3B8">
    <line x1="0" y1="0" x2="34" y2="0" stroke="url(#edge)" stroke-width="2"/>
    <text x="42" y="4">message via Matrix room</text>
    <line x1="220" y1="0" x2="254" y2="0" stroke="url(#edge-back)" stroke-width="1.4" stroke-dasharray="4 6"/>
    <text x="262" y="4">agent-to-agent consult</text>
    <circle cx="448" cy="0" r="3" fill="#34D399"/>
    <text x="458" y="4">status: green = ready</text>
    <circle cx="640" cy="0" r="3" fill="#FBBF24"/>
    <text x="650" y="4">working</text>
    <circle cx="730" cy="0" r="3" fill="#F472B6"/>
    <text x="740" y="4">needs review</text>
  </g>
</svg>
