<svg xmlns="http://www.w3.org/2000/svg" width="1400" height="600" viewBox="0 0 1400 600" role="img" aria-labelledby="hero-title hero-desc" font-family="Inter, ui-sans-serif, system-ui, -apple-system, 'Segoe UI', sans-serif">
  <title id="hero-title">Credo — the operating system for your agents</title>
  <desc id="hero-desc">Self-hosted Matrix backbone, verifiable memory, policy-gated tool calls. Configure agents that consult, decide and collaborate with a full audit trail.</desc>
  <defs>
    <linearGradient id="bg" x1="0" y1="0" x2="1400" y2="600" gradientUnits="userSpaceOnUse">
      <stop offset="0" stop-color="#06060A"/>
      <stop offset="1" stop-color="#0A0A14"/>
    </linearGradient>
    <radialGradient id="orb-a" cx="220" cy="180" r="420" gradientUnits="userSpaceOnUse">
      <stop offset="0" stop-color="#6366F1" stop-opacity=".55"/>
      <stop offset="1" stop-color="#6366F1" stop-opacity="0"/>
    </radialGradient>
    <radialGradient id="orb-b" cx="1180" cy="380" r="440" gradientUnits="userSpaceOnUse">
      <stop offset="0" stop-color="#22D3EE" stop-opacity=".42"/>
      <stop offset="1" stop-color="#22D3EE" stop-opacity="0"/>
    </radialGradient>
    <radialGradient id="orb-c" cx="780" cy="560" r="380" gradientUnits="userSpaceOnUse">
      <stop offset="0" stop-color="#A78BFA" stop-opacity=".30"/>
      <stop offset="1" stop-color="#A78BFA" stop-opacity="0"/>
    </radialGradient>
    <pattern id="grid" width="48" height="48" patternUnits="userSpaceOnUse">
      <path d="M 48 0 L 0 0 0 48" fill="none" stroke="#FFFFFF" stroke-opacity=".04" stroke-width="1"/>
    </pattern>
    <linearGradient id="mark-grad" x1="0" y1="0" x2="1" y2="1">
      <stop offset="0" stop-color="#A78BFA"/>
      <stop offset=".5" stop-color="#6366F1"/>
      <stop offset="1" stop-color="#22D3EE"/>
    </linearGradient>
    <radialGradient id="dot-grad" cx=".5" cy=".5" r=".5">
      <stop offset="0" stop-color="#ffffff"/>
      <stop offset="1" stop-color="#A5F3FC"/>
    </radialGradient>
    <linearGradient id="title-grad" x1="0" y1="0" x2="1" y2="0">
      <stop offset="0" stop-color="#FFFFFF"/>
      <stop offset="1" stop-color="#A5B4FC"/>
    </linearGradient>
    <linearGradient id="edge-grad" x1="0" y1="0" x2="1" y2="0">
      <stop offset="0" stop-color="#6366F1" stop-opacity=".10"/>
      <stop offset=".5" stop-color="#22D3EE" stop-opacity=".55"/>
      <stop offset="1" stop-color="#6366F1" stop-opacity=".10"/>
    </linearGradient>
    <filter id="soft" x="-20%" y="-20%" width="140%" height="140%">
      <feGaussianBlur stdDeviation="14"/>
    </filter>

    <symbol id="mark" viewBox="0 0 64 64">
      <path d="M47.56 16.44 A22 22 0 1 0 47.56 47.56" fill="none" stroke="url(#mark-grad)" stroke-width="9" stroke-linecap="round"/>
      <circle cx="32" cy="32" r="4.5" fill="url(#dot-grad)"/>
    </symbol>
  </defs>

  <rect width="1400" height="600" fill="url(#bg)"/>
  <rect width="1400" height="600" fill="url(#grid)"/>
  <rect width="1400" height="600" fill="url(#orb-a)"/>
  <rect width="1400" height="600" fill="url(#orb-b)"/>
  <rect width="1400" height="600" fill="url(#orb-c)"/>

  <!-- top nav -->
  <g transform="translate(60 50)">
    <use href="#mark" x="0" y="0" width="36" height="36"/>
    <text x="48" y="26" fill="#EDEDED" font-size="22" font-weight="700" letter-spacing="-1">credo</text>
  </g>
  <g transform="translate(1180 50)">
    <rect x="0" y="6" width="160" height="28" rx="14" fill="#FFFFFF" fill-opacity=".05" stroke="#FFFFFF" stroke-opacity=".10"/>
    <circle cx="18" cy="20" r="3" fill="#34D399"/>
    <text x="32" y="24" fill="#CBD5E1" font-size="12" letter-spacing="1.4">SELF-HOSTED  ·  v0.1 MVP</text>
  </g>

  <!-- claim -->
  <g transform="translate(60 196)">
    <text x="0" y="0" fill="#6366F1" font-size="13" letter-spacing="3" font-weight="600">CREDO  ·  AGENT OS  ·  DAO-NATIVE  ·  CRYPTOGRAPHICALLY VERIFIED</text>
    <text x="0" y="74" fill="url(#title-grad)" font-size="74" font-weight="700" letter-spacing="-3.6">The agent OS</text>
    <text x="0" y="148" fill="url(#title-grad)" font-size="74" font-weight="700" letter-spacing="-3.6">for DAOs.</text>
    <text x="0" y="198" fill="#94A3B8" font-size="19" font-weight="400">Matrix backbone. Ed25519-signed actions. m-of-n quorum,</text>
    <text x="0" y="222" fill="#94A3B8" font-size="19" font-weight="400">anchored on Matrix, IPFS and Safe — multi-agent ops your DAO can verify.</text>

    <g transform="translate(0 252)">
      <rect x="0" y="0" width="180" height="40" rx="20" fill="#EDEDED"/>
      <text x="90" y="26" fill="#0A0A0A" font-size="13" font-weight="600" text-anchor="middle">Read architecture →</text>
      <rect x="196" y="0" width="160" height="40" rx="20" fill="#FFFFFF" fill-opacity=".05" stroke="#FFFFFF" stroke-opacity=".15"/>
      <text x="276" y="26" fill="#EDEDED" font-size="13" font-weight="500" text-anchor="middle">Star on GitHub</text>
    </g>

    <!-- crypto chip row -->
    <g transform="translate(0 312)" font-size="11" font-family="ui-monospace, 'SF Mono', Menlo, monospace">
      <g><rect x="0" y="0" width="118" height="26" rx="13" fill="#FFFFFF" fill-opacity=".04" stroke="#FFFFFF" stroke-opacity=".12"/><circle cx="14" cy="13" r="3" fill="#34D399"/><text x="26" y="17" fill="#CBD5E1">Ed25519 signed</text></g>
      <g transform="translate(126 0)"><rect x="0" y="0" width="104" height="26" rx="13" fill="#FFFFFF" fill-opacity=".04" stroke="#FFFFFF" stroke-opacity=".12"/><circle cx="14" cy="13" r="3" fill="#A78BFA"/><text x="26" y="17" fill="#CBD5E1">Safe multisig</text></g>
      <g transform="translate(238 0)"><rect x="0" y="0" width="104" height="26" rx="13" fill="#FFFFFF" fill-opacity=".04" stroke="#FFFFFF" stroke-opacity=".12"/><circle cx="14" cy="13" r="3" fill="#22D3EE"/><text x="26" y="17" fill="#CBD5E1">IPFS anchored</text></g>
      <g transform="translate(350 0)"><rect x="0" y="0" width="94" height="26" rx="13" fill="#FFFFFF" fill-opacity=".04" stroke="#FFFFFF" stroke-opacity=".12"/><circle cx="14" cy="13" r="3" fill="#60A5FA"/><text x="26" y="17" fill="#CBD5E1">L2 settlement</text></g>
    </g>
  </g>

  <!-- agent mesh visualization -->
  <g transform="translate(980 300)">
    <!-- orbit rings -->
    <circle cx="0" cy="0" r="100" fill="none" stroke="#FFFFFF" stroke-opacity=".06"/>
    <circle cx="0" cy="0" r="160" fill="none" stroke="#FFFFFF" stroke-opacity=".05"/>
    <circle cx="0" cy="0" r="220" fill="none" stroke="#FFFFFF" stroke-opacity=".04"/>

    <!-- edges -->
    <g stroke="url(#edge-grad)" stroke-width="1.4" fill="none" opacity=".9">
      <line x1="0" y1="0" x2="156" y2="-36"/>
      <line x1="0" y1="0" x2="-148" y2="62"/>
      <line x1="0" y1="0" x2="92" y2="142"/>
      <line x1="0" y1="0" x2="-92" y2="-130"/>
      <line x1="0" y1="0" x2="172" y2="68"/>
      <line x1="0" y1="0" x2="-176" y2="-22"/>
    </g>

    <!-- glow under hub -->
    <circle cx="0" cy="0" r="48" fill="#6366F1" opacity=".35" filter="url(#soft)"/>

    <!-- central hub: matrix -->
    <g>
      <circle cx="0" cy="0" r="38" fill="#0F0F18" stroke="url(#mark-grad)" stroke-width="2"/>
      <text x="0" y="-3" fill="#EDEDED" font-size="10" font-weight="600" text-anchor="middle" letter-spacing="2">MATRIX</text>
      <text x="0" y="13" fill="#94A3B8" font-size="9" text-anchor="middle">bus  /  audit</text>
    </g>

    <!-- agent nodes -->
    <g font-size="9" font-weight="600" text-anchor="middle" letter-spacing="1.2">
      <g transform="translate(156 -36)">
        <circle r="22" fill="#0F0F18" stroke="#A78BFA" stroke-width="1.6"/>
        <text y="3" fill="#EDEDED">HERMES</text>
      </g>
      <g transform="translate(-148 62)">
        <circle r="22" fill="#0F0F18" stroke="#22D3EE" stroke-width="1.6"/>
        <text y="3" fill="#EDEDED">CODEX</text>
      </g>
      <g transform="translate(92 142)">
        <circle r="22" fill="#0F0F18" stroke="#34D399" stroke-width="1.6"/>
        <text y="3" fill="#EDEDED">SKILLS</text>
      </g>
      <g transform="translate(-92 -130)">
        <circle r="22" fill="#0F0F18" stroke="#F472B6" stroke-width="1.6"/>
        <text y="3" fill="#EDEDED">VOICE</text>
      </g>
      <g transform="translate(172 68)">
        <circle r="22" fill="#0F0F18" stroke="#FBBF24" stroke-width="1.6"/>
        <text y="3" fill="#EDEDED">MCP</text>
      </g>
      <g transform="translate(-176 -22)">
        <circle r="22" fill="#0F0F18" stroke="#60A5FA" stroke-width="1.6"/>
        <text y="3" fill="#EDEDED">BRIDGE</text>
      </g>
    </g>
  </g>

  <!-- proof row -->
  <g transform="translate(60 540)" font-size="11" letter-spacing="2.5" font-weight="500" fill="#6B7280">
    <text x="0" y="0">BUILT ON</text>
    <text x="100" y="0" fill="#94A3B8">MATRIX</text>
    <text x="180" y="0" fill="#94A3B8">·  POSTGRES</text>
    <text x="300" y="0" fill="#94A3B8">·  pgvector</text>
    <text x="412" y="0" fill="#94A3B8">·  REDIS</text>
    <text x="492" y="0" fill="#94A3B8">·  S3 / R2</text>
    <text x="584" y="0" fill="#94A3B8">·  LIVEKIT</text>
    <text x="676" y="0" fill="#94A3B8">·  TAILSCALE</text>
    <text x="788" y="0" fill="#94A3B8">·  OPENTELEMETRY</text>
  </g>
</svg>
